<svg id="Layer_1" data-name="Layer 1" xmlns="http://www.w3.org/2000/svg" viewBox="0 0 71.75 67.33">
    <defs>
        <style>.cls-1{fill:#00b8d4;}</style>
    </defs>
    <title>bingo pos</title>
    <path class="cls-1"
          d="M30.71,52.47A5.26,5.26,0,1,0,36,57.72,5.26,5.26,0,0,0,30.71,52.47Zm0,7.58A2.32,2.32,0,1,1,33,57.72,2.32,2.32,0,0,1,30.71,60Z"/>
    <path class="cls-1"
          d="M49.15,52.47a5.26,5.26,0,1,0,5.26,5.26A5.26,5.26,0,0,0,49.15,52.47Zm0,7.58a2.32,2.32,0,1,1,2.32-2.32A2.32,2.32,0,0,1,49.15,60Z"/>
    <path class="cls-1" d="M29.41,27.72h21a1.47,1.47,0,1,0,0-2.94h-21a1.47,1.47,0,1,0,0,2.94Z"/>
    <path class="cls-1" d="M49.3,32.41H30.55a1.47,1.47,0,1,0,0,2.94H49.3a1.47,1.47,0,0,0,0-2.94Z"/>
    <path class="cls-1"
          d="M64.76,18.25a2.92,2.92,0,0,0-2.28-1.08H16.76l-.92-4.48a2.94,2.94,0,0,0-1.71-2.1L7.69,7.79a1.47,1.47,0,0,0-1.17,2.69L13,13.28l7.1,34.47a3,3,0,0,0,2.88,2.34H58.11a1.47,1.47,0,1,0,0-2.94H22.94L22.08,43h36.3a3,3,0,0,0,2.87-2.34l4.11-19.93A2.92,2.92,0,0,0,64.76,18.25ZM58.38,40H21.47L17.37,20.1H62.48Z"/>
</svg>