<svg id="Layer_1" data-name="Layer 1" xmlns="http://www.w3.org/2000/svg" viewBox="0 0 217 360.29">
    <defs>
        <style>
            .cls-1{fill:#eaeaea;}.cls-2{fill:none;stroke:#e0e0e0;stroke-linecap:round;stroke-linejoin:round;stroke-width:2px;}
        </style>
    </defs>
    <title>Bingo</title>
    <path class="cls-1"
          d="M51.79,272.59a2,2,0,0,0-1.41-3.38l-7-.44a.9.9,0,0,1-.71-.44l-3.58-6a2,2,0,0,0-3.65.3l-2.56,6.48a.91.91,0,0,1-.64.55l-6.79,1.56a2,2,0,0,0-.84,3.56L30,279.25a.91.91,0,0,1,.32.78L29.72,287a2,2,0,0,0,3.13,1.9l5.88-3.74a.92.92,0,0,1,.84-.07L46,287.8a2,2,0,0,0,2.78-2.39L47,278.66a.89.89,0,0,1,.2-.82Zm-5.88,6.36,1.73,6.75a.9.9,0,0,1-1.23,1.05L40,284a2.05,2.05,0,0,0-1.9.16l-5.88,3.73a.9.9,0,0,1-1.38-.84l.61-6.94a2,2,0,0,0-.73-1.76l-5.37-4.44a.9.9,0,0,1,.37-1.58l6.79-1.56A2,2,0,0,0,34,269.56l2.56-6.48a.9.9,0,0,1,1.61-.13l3.59,6a2,2,0,0,0,1.62,1l7,.44a.91.91,0,0,1,.63,1.49l-4.58,5.25a2,2,0,0,0-.44,1.85Zm0,0"/>
    <path class="cls-1"
          d="M68.52,131.37a16.63,16.63,0,1,0,17.94,15.22,16.65,16.65,0,0,0-17.94-15.22Zm2.61,31.88a15.35,15.35,0,1,1,14-16.56,15.37,15.37,0,0,1-14,16.56Zm0,0"/>
    <path class="cls-1"
          d="M77.13,140.51l-8.9,11.83-6.29-4.24a.64.64,0,1,0-.72,1.06L68,153.74a.65.65,0,0,0,.41.11.64.64,0,0,0,.46-.25l9.26-12.31a.64.64,0,1,0-1-.77Zm0,0"/>
    <path class="cls-1"
          d="M151.68,88.3l-14.32,1.17a2.52,2.52,0,0,0-2.3,2.71l2.38,29.1a2.52,2.52,0,0,0,2.71,2.3l14.32-1.17a2.51,2.51,0,0,0,2.3-2.71l-2.38-29.1a2.51,2.51,0,0,0-2.71-2.3Zm-15.31,5.83,17.06-1.4,1.77,21.61-17.06,1.4Zm1.09-3.52,14.32-1.17a1.37,1.37,0,0,1,1.48,1.25l.07.91L136.28,93l-.07-.91a1.37,1.37,0,0,1,1.25-1.48Zm16.93,30.66-14.32,1.17a1.37,1.37,0,0,1-1.48-1.25l-.35-4.32,17.06-1.4.35,4.32a1.37,1.37,0,0,1-1.26,1.48Zm0,0"/>
    <path class="cls-1"
          d="M146.81,116.75a2.28,2.28,0,1,0,2.46,2.09,2.28,2.28,0,0,0-2.46-2.09Zm.28,3.41a1.14,1.14,0,1,1,1-1.23,1.14,1.14,0,0,1-1,1.23Zm0,0"/>
    <path class="cls-1" d="M142.48,91.92l2.27-.19a.57.57,0,0,0-.09-1.14l-2.27.19a.57.57,0,0,0,.09,1.14Zm0,0"/>
    <path class="cls-1" d="M146.46,91.59l.57,0a.57.57,0,0,0-.09-1.14l-.57,0a.57.57,0,0,0,.09,1.14Zm0,0"/>
    <path class="cls-1"
          d="M159.87,90.25a.57.57,0,0,0-.74.87,5.47,5.47,0,0,1,.63,7.71.57.57,0,0,0,.87.74,6.61,6.61,0,0,0-.76-9.31Zm0,0"/>
    <path class="cls-1"
          d="M157.58,91.74a.57.57,0,1,0-.74.87,3.75,3.75,0,0,1,.43,5.27.57.57,0,1,0,.87.74,4.89,4.89,0,0,0-.56-6.88Zm0,0"/>
    <path class="cls-1"
          d="M130.48,93.46a.57.57,0,1,0-.87-.74,6.61,6.61,0,0,0,.76,9.31.57.57,0,0,0,.74-.87,5.48,5.48,0,0,1-.63-7.71Zm0,0"/>
    <path class="cls-1"
          d="M132.9,93.6a.57.57,0,0,0-.81.07,4.89,4.89,0,0,0,.56,6.88.57.57,0,0,0,.74-.87,3.75,3.75,0,0,1-.43-5.27.57.57,0,0,0-.07-.81Zm0,0"/>
    <path class="cls-1"
          d="M35.42,11.28,34.25,6.63l-2.82.23a3.78,3.78,0,1,0,.15,1.88l1.22-.1.7,2.79h0l6.88,24.11a4.86,4.86,0,0,0-4.14,4.58,4.74,4.74,0,0,0,5.11,4.81l1.88-.15a5.67,5.67,0,0,0,11.31-.93L64.88,43a5.67,5.67,0,0,0,11.31-.93L80,41.77a.95.95,0,0,0-.15-1.88l-4.1.34a5.66,5.66,0,0,0-10.65.87L54,42a5.66,5.66,0,0,0-10.65.87l-2.21.18A2.84,2.84,0,0,1,39,42.29a2.81,2.81,0,0,1-.9-2.12,3,3,0,0,1,2.78-2.78l.79-.06,21-1.73h0l10.66-.88h0l5.07-.42a4.72,4.72,0,0,0,4.31-5.08L81,7.54ZM28,10a1.89,1.89,0,1,1,1.73-2A1.89,1.89,0,0,1,28,10ZM70.23,38.78a3.78,3.78,0,1,1-3.46,4.08,3.78,3.78,0,0,1,3.46-4.08ZM48.56,40.55a3.78,3.78,0,1,1-3.46,4.08,3.78,3.78,0,0,1,3.46-4.08ZM80.4,23.92l-7.59,8.95-8,.66,14.94-17.6Zm-.87-10.66L62.15,33.74l-8,.66L74.92,9.93l4.31-.35Zm-36,22L64.25,10.81l8-.66L51.48,34.62Zm-5.92-16.4,5.36-6.32,8-.66L39.44,25.44Zm2.7-6.1-3.32,3.91-1-3.56Zm-.2,14.85L53.59,11.68l8-.66L42,34.14s0,0,0,.07Zm38.2,4.79-2.79.23,5.15-6.06.23,2.79a2.83,2.83,0,0,1-2.58,3Zm0,0"/>
    <path class="cls-1"
          d="M129.28,334.37l-2.22.18-.31-3.8a1.71,1.71,0,0,0-1.88-1.51l-2.08.17-.12-1.46-.34-.27h0l-5-4L112,319.29l-15.56,1.27.55,6.67-3.36.28a1.71,1.71,0,0,0-1.61,1.8l2.17,26.5h0a1.5,1.5,0,0,0,.41.93,1.66,1.66,0,0,0,1.35.5l28.53-2.34a1.62,1.62,0,0,0,1.47-1.23L131,336.14V336a1.66,1.66,0,0,0-1.75-1.67ZM125,330.44a.46.46,0,0,1,.5.41l.31,3.8-2.55.21-.35-4.25Zm-12.47-9.11,8,6.42-7.39.6Zm-14.73.34,13.39-1.1.75,9.1,9.56-.78L122,335l-21.21,1.74-.27,0a1.59,1.59,0,0,0-1.2,1.18l-.14.48Zm-4.52,7.53a.46.46,0,0,1,.43-.48l3.36-.28,1.09,13.37-3,10.24Zm31.42,24.21a.36.36,0,0,1-.33.28L95.81,356a.36.36,0,0,1-.3-.11.32.32,0,0,1-.1-.24l3-10.31h0l2.09-7.14v-.05a.36.36,0,0,1,.33-.28l28.53-2.34c.24,0,.33.31.36.47Zm0,0"/>
    <path class="cls-1" d="M102.33,330.47l6.37-.52a.61.61,0,1,0-.1-1.21l-6.37.52a.61.61,0,1,0,.1,1.21Zm0,0"/>
    <path class="cls-1" d="M102,326.22l6.37-.52a.61.61,0,1,0-.1-1.21l-6.37.52a.61.61,0,1,0,.1,1.21Zm0,0"/>
    <path class="cls-1" d="M102.68,334.71l15.3-1.25a.61.61,0,1,0-.1-1.21l-15.3,1.25a.61.61,0,1,0,.1,1.21Zm0,0"/>
    <path class="cls-1"
          d="M171.91,224.88a4,4,0,0,0-4.17-2.87.8.8,0,0,0,.13,1.6,2.4,2.4,0,1,1,.39,4.78.8.8,0,0,0,.13,1.6,4,4,0,0,0,3.65-3.51l10.45-.86.59,7.17L140,236.32l-.59-7.17L153,228a.8.8,0,0,0-.13-1.6l-1.45.12a2.4,2.4,0,1,1,2.51,3,.8.8,0,0,0,.13,1.6,4,4,0,1,0-4.3-4.47l-12,1,3.46,42.26,46.24-3.79L184,223.89Zm13.78,39.81-43.05,3.53-2.48-30.3,43.05-3.53Zm0,0"/>
    <path class="cls-1"
          d="M158.31,224.39a2.4,2.4,0,1,1,.39,4.78.8.8,0,0,0,.13,1.6,4,4,0,1,0-.65-8,.8.8,0,0,0,.13,1.6Zm0,0"/>
    <path class="cls-1"
          d="M163.1,224a2.4,2.4,0,0,1,.39,4.78.8.8,0,0,0,.13,1.6,4,4,0,1,0-.65-8,.8.8,0,0,0,.13,1.6Zm0,0"/>
    <path class="cls-1" d="M157.35,242.12a.8.8,0,1,1-.86-.73.8.8,0,0,1,.86.73Zm0,0"/>
    <path class="cls-1" d="M162.93,241.67a.8.8,0,1,1-.86-.73.8.8,0,0,1,.86.73Zm0,0"/>
    <path class="cls-1" d="M168.52,241.21a.8.8,0,1,1-.86-.73.8.8,0,0,1,.86.73Zm0,0"/>
    <path class="cls-1" d="M174.1,240.75a.8.8,0,1,1-.86-.73.8.8,0,0,1,.86.73Zm0,0"/>
    <path class="cls-1" d="M179.68,240.29a.8.8,0,1,1-.86-.73.8.8,0,0,1,.86.73Zm0,0"/>
    <path class="cls-1" d="M146.71,249.42a.8.8,0,1,1-.86-.73.8.8,0,0,1,.86.73Zm0,0"/>
    <path class="cls-1" d="M152.3,249a.8.8,0,1,1-.86-.73.8.8,0,0,1,.86.73Zm0,0"/>
    <path class="cls-1" d="M157.87,248.5a.8.8,0,1,1-.86-.73.79.79,0,0,1,.86.73Zm0,0"/>
    <path class="cls-1" d="M163.46,248a.8.8,0,1,1-.86-.73.8.8,0,0,1,.86.73Zm0,0"/>
    <path class="cls-1" d="M169,247.59a.8.8,0,1,1-.86-.73.8.8,0,0,1,.86.73Zm0,0"/>
    <path class="cls-1" d="M174.62,247.13a.8.8,0,1,1-.86-.73.8.8,0,0,1,.86.73Zm0,0"/>
    <path class="cls-1" d="M180.2,246.68a.8.8,0,1,1-.86-.73.8.8,0,0,1,.86.73Zm0,0"/>
    <path class="cls-1" d="M147.17,255a.8.8,0,1,1-.86-.73.8.8,0,0,1,.86.73Zm0,0"/>
    <path class="cls-1" d="M152.75,254.54a.8.8,0,1,1-.86-.73.8.8,0,0,1,.86.73Zm0,0"/>
    <path class="cls-1" d="M158.33,254.08a.8.8,0,1,1-.86-.73.8.8,0,0,1,.86.73Zm0,0"/>
    <path class="cls-1" d="M163.91,253.63a.8.8,0,1,1-.86-.73.8.8,0,0,1,.86.73Zm0,0"/>
    <path class="cls-1" d="M169.5,253.17a.8.8,0,1,1-.86-.73.8.8,0,0,1,.86.73Zm0,0"/>
    <path class="cls-1" d="M175.08,252.71a.8.8,0,1,1-.86-.73.8.8,0,0,1,.86.73Zm0,0"/>
    <path class="cls-1" d="M180.66,252.25a.8.8,0,1,1-.86-.73.8.8,0,0,1,.86.73Zm0,0"/>
    <path class="cls-1" d="M147.69,261.38a.8.8,0,1,1-.86-.73.8.8,0,0,1,.86.73Zm0,0"/>
    <path class="cls-1" d="M153.28,260.92a.8.8,0,1,1-.86-.73.8.8,0,0,1,.86.73Zm0,0"/>
    <path class="cls-1" d="M158.85,260.46a.8.8,0,1,1-.86-.73.79.79,0,0,1,.86.73Zm0,0"/>
    <path class="cls-1" d="M164.44,260a.8.8,0,1,1-.86-.73.8.8,0,0,1,.86.73Zm0,0"/>
    <path class="cls-1" d="M170,259.55a.8.8,0,1,1-.86-.73.8.8,0,0,1,.86.73Zm0,0"/>
    <line class="cls-2" x1="143.49" y1="33.86" x2="136.42" y2="40.93"/>
    <line class="cls-2" x1="143.49" y1="33.86" x2="136.42" y2="40.93"/>
    <line class="cls-2" x1="143.49" y1="40.93" x2="136.42" y2="33.86"/>
    <line class="cls-2" x1="15.21" y1="108.22" x2="8.14" y2="115.29"/>
    <line class="cls-2" x1="15.21" y1="108.22" x2="8.14" y2="115.29"/>
    <line class="cls-2" x1="15.21" y1="115.29" x2="8.14" y2="108.22"/>
    <line class="cls-2" x1="85.48" y1="220.8" x2="80.02" y2="226.26"/>
    <line class="cls-2" x1="85.48" y1="220.8" x2="80.02" y2="226.26"/>
    <line class="cls-2" x1="85.48" y1="226.26" x2="80.02" y2="220.8"/>
    <line class="cls-2" x1="167.56" y1="324.73" x2="157.56" y2="324.73"/>
    <line class="cls-2" x1="167.56" y1="324.73" x2="157.56" y2="324.73"/>
    <line class="cls-2" x1="162.56" y1="329.73" x2="162.56" y2="319.73"/>
    <line class="cls-2" x1="211.53" y1="123.6" x2="201.53" y2="123.6"/>
    <line class="cls-2" x1="211.53" y1="123.6" x2="201.53" y2="123.6"/>
    <line class="cls-2" x1="206.53" y1="128.6" x2="206.53" y2="118.6"/>
    <circle class="cls-2" cx="143.57" cy="185.75" r="1.13"/>
    <circle class="cls-2" cx="38.09" cy="196.36" r="1.13"/>
    <circle class="cls-2" cx="10.55" cy="322.96" r="1.13"/>
</svg>