<svg id="Layer_1" data-name="Layer 1" xmlns="http://www.w3.org/2000/svg" viewBox="0 0 182.5 196.5">
    <defs>
        <style>.cls-1{font-size:55.96px;fill:#e0e0e0;font-family:Montserrat-Bold,
            Montserrat;font-weight:700;}.cls-2,.cls-7,.cls-8{fill:#fff;}.cls-3,.cls-4,.cls-5,.cls-6{fill:none;}.cls-3,.cls-4,.cls-5{stroke:#bdbdbd;}.cls-3,.cls-4,.cls-5,.cls-7{stroke-linecap:round;stroke-linejoin:round;}.cls-3{opacity:0.1;}.cls-4{opacity:0.15;}.cls-5{opacity:0.05;}.cls-6,.cls-7,.cls-8{stroke:#e0e0e0;}.cls-6,.cls-8{stroke-miterlimit:10;}.cls-9{fill:#eee;}
        </style>
    </defs>
    <title>Bingo</title>
    <text class="cls-1" transform="translate(128.76 42.6)">3</text>
    <circle class="cls-2" cx="91.39" cy="105.25" r="87.11"/>
    <circle class="cls-3" cx="90.6" cy="105.25" r="69.06"/>
    <path class="cls-4" d="M77.73,54.75a52.12,52.12,0,1,1-39.24,50.51A52.21,52.21,0,0,1,77.73,54.75"/>
    <circle class="cls-5" cx="90.6" cy="105.25" r="87.11"/>
    <line class="cls-6" x1="73.2" y1="107.36" x2="111.44" y2="107.36"/>
    <rect class="cls-6" x="73.2" y="79.41" width="38.24" height="60.18" rx="5.5" ry="5.5"/>
    <rect class="cls-6" x="76.84" y="83.19" width="30.96" height="6.38" rx="3.19" ry="3.19"/>
    <rect class="cls-6" x="80.69" y="112.59" width="5.49" height="5.49" rx="2" ry="2"/>
    <rect class="cls-6" x="89.57" y="112.59" width="5.49" height="5.49" rx="2" ry="2"/>
    <rect class="cls-6" x="98.46" y="112.59" width="5.49" height="5.49" rx="2" ry="2"/>
    <rect class="cls-6" x="80.69" y="121.18" width="5.49" height="5.49" rx="2" ry="2"/>
    <rect class="cls-6" x="89.57" y="121.18" width="5.49" height="5.49" rx="2" ry="2"/>
    <rect class="cls-6" x="98.46" y="121.18" width="5.49" height="14.2" rx="2" ry="2"/>
    <rect class="cls-6" x="80.69" y="129.89" width="5.49" height="5.49" rx="2" ry="2"/>
    <rect class="cls-6" x="89.57" y="129.89" width="5.49" height="5.49" rx="2" ry="2"/>
    <path class="cls-6"
          d="M73.18,84.22h0a0,0,0,0,1,0,0V97a0,0,0,0,1,0,0h0a1.85,1.85,0,0,1-1.85-1.85V86.07A1.85,1.85,0,0,1,73.18,84.22Z"/>
    <path class="cls-6"
          d="M113.09,84.22h0a0,0,0,0,1,0,0V97a0,0,0,0,1,0,0h0a1.85,1.85,0,0,1-1.85-1.85V86.07A1.85,1.85,0,0,1,113.09,84.22Z"
          transform="translate(224.33 181.21) rotate(180)"/>
    <line class="cls-6" x1="81.15" y1="86.38" x2="103.88" y2="86.38"/>
    <path class="cls-7" d="M101.78,70.64V86.38H83.17V70.64h0a3.31,3.31,0,0,1,3.31-3.31h18.31"/>
    <line class="cls-6" x1="86.65" y1="73.9" x2="98.31" y2="73.9"/>
    <line class="cls-6" x1="86.65" y1="78.4" x2="98.31" y2="78.4"/>
    <path class="cls-8" d="M107.8,70.33a3,3,0,0,0-6,0"/>
    <line class="cls-7" x1="107.8" y1="70.33" x2="101.78" y2="70.33"/>
    <rect class="cls-9" x="76.84" y="92.83" width="30.96" height="10.62" rx="3.87" ry="3.87"/>
    <rect class="cls-6" x="76.84" y="92.83" width="30.96" height="10.62" rx="4.35" ry="4.35"/>
</svg>